<?xml version="1.0" encoding="UTF-8" standalone="no" ?>
<!DOCTYPE svg PUBLIC "-//W3C//DTD SVG 1.1//EN" "http://www.w3.org/Graphics/SVG/1.1/DTD/svg11.dtd">
<svg xmlns="http://www.w3.org/2000/svg" xmlns:xlink="http://www.w3.org/1999/xlink" version="1.1" width="274" height="254.80058" viewBox="136.98395699959514 146.1525279196785 371.0120860008097 345.01494416064304" xml:space="preserve">
<desc>Created with Fabric.js 4.6.0</desc>
<defs>
</defs>
<g transform="matrix(1 0 0 1 235.5 318.66)" id="XLlZm-UmbU3Ig4Y7OGWHS"  >
<linearGradient id="SVGID_41" gradientUnits="userSpaceOnUse" gradientTransform="matrix(1 0 0 1 -83.98 -157.97)"  x1="0" y1="157.9668858047238" x2="168.45090028375088" y2="157.9668858047238">
<stop offset="0%" style="stop-color:#1A17A2;stop-opacity: 1"/>
<stop offset="49.85158880149715%" style="stop-color:#4927B9;stop-opacity: 1"/>
<stop offset="100%" style="stop-color:#D055F4;stop-opacity: 1"/>
</linearGradient>
<path style="stroke: rgb(255,255,255); stroke-width: 2; stroke-dasharray: none; stroke-linecap: butt; stroke-dashoffset: 0; stroke-linejoin: miter; stroke-miterlimit: 4; fill: url(#SVGID_41); fill-rule: nonzero; opacity: 1;" vector-effect="non-scaling-stroke"  transform=" translate(0, 0)" d="M 33.2172 -37.56347 C 5.456419999999998 -63.886630000000004 -20.019379999999998 -75.0918 -41.651469999999996 -102.61021 C -63.283559999999994 -130.12860999999998 -52.49458 -157.96688999999998 -52.49458 -157.96688999999998 C -52.49458 -157.96688999999998 -82.98964 -131.38866 -83.96681 -62.90317999999998 C -84.94398 5.582300000000018 -2.729140000000001 44.40954000000002 -2.729140000000001 44.40954000000002 C -2.729140000000001 44.40954000000002 -27.24482 55.83329000000002 -33.628569999999996 93.48780000000002 C -40.012319999999995 131.14231 -15.484599999999997 157.96688 -15.484599999999997 157.96688 C -15.484599999999997 157.96688 -24.037129999999998 153.59119 2.7341400000000036 121.07248000000001 C 29.505410000000005 88.55377000000001 65.19874 82.51215000000002 80.73785000000001 23.099710000000016 C 96.27696 -36.31272999999998 50.833070000000006 -62.90316999999999 50.833070000000006 -62.90316999999999 C 50.833070000000006 -62.90316999999999 63.036640000000006 -45.57393999999999 67.67628 -29.177539999999986 C 72.31592 -12.781139999999986 69.39163 2.6824200000000147 69.39163 2.6824200000000147 C 69.39163 2.6824200000000147 60.977970000000006 -11.240309999999985 33.217200000000005 -37.563459999999985 z" stroke-linecap="round" />
</g>
<g transform="matrix(-1 0 0 1 409.48 318.66)" id="31j3-dHsigdw6lJj_O2um"  >
<linearGradient id="SVGID_42" gradientUnits="userSpaceOnUse" gradientTransform="matrix(1 0 0 1 -83.98 -157.97)"  x1="0" y1="157.9668858047238" x2="168.45090028375088" y2="157.9668858047238">
<stop offset="0%" style="stop-color:#1A17A2;stop-opacity: 1"/>
<stop offset="49.85158880149715%" style="stop-color:#4927B9;stop-opacity: 1"/>
<stop offset="100%" style="stop-color:#D055F4;stop-opacity: 1"/>
</linearGradient>
<path style="stroke: rgb(255,255,255); stroke-width: 2; stroke-dasharray: none; stroke-linecap: butt; stroke-dashoffset: 0; stroke-linejoin: miter; stroke-miterlimit: 4; fill: url(#SVGID_42); fill-rule: nonzero; opacity: 1;" vector-effect="non-scaling-stroke"  transform=" translate(0, 0)" d="M 33.2172 -37.56347 C 5.456419999999998 -63.886630000000004 -20.019379999999998 -75.0918 -41.651469999999996 -102.61021 C -63.283559999999994 -130.12860999999998 -52.49458 -157.96688999999998 -52.49458 -157.96688999999998 C -52.49458 -157.96688999999998 -82.98964 -131.38866 -83.96681 -62.90317999999998 C -84.94398 5.582300000000018 -2.729140000000001 44.40954000000002 -2.729140000000001 44.40954000000002 C -2.729140000000001 44.40954000000002 -27.24482 55.83329000000002 -33.628569999999996 93.48780000000002 C -40.012319999999995 131.14231 -15.484599999999997 157.96688 -15.484599999999997 157.96688 C -15.484599999999997 157.96688 -24.037129999999998 153.59119 2.7341400000000036 121.07248000000001 C 29.505410000000005 88.55377000000001 65.19874 82.51215000000002 80.73785000000001 23.099710000000016 C 96.27696 -36.31272999999998 50.833070000000006 -62.90316999999999 50.833070000000006 -62.90316999999999 C 50.833070000000006 -62.90316999999999 63.036640000000006 -45.57393999999999 67.67628 -29.177539999999986 C 72.31592 -12.781139999999986 69.39163 2.6824200000000147 69.39163 2.6824200000000147 C 69.39163 2.6824200000000147 60.977970000000006 -11.240309999999985 33.217200000000005 -37.563459999999985 z" stroke-linecap="round" />
</g>
</svg>